<svg width="27" height="24" viewBox="0 0 27 24" fill="none" xmlns="http://www.w3.org/2000/svg">
<path d="M9.78447 14.1077C9.29626 13.3942 9.02086 12.5304 9.02086 11.6041C9.02086 9.12551 11.0238 7.12261 13.5023 7.12261C15.9809 7.12261 17.9838 9.12551 17.9838 11.6041C17.9838 14.0827 15.9809 16.0856 13.5023 16.0856" stroke="#FD650B" stroke-width="2.5" stroke-linecap="round" stroke-linejoin="round"/>
<path d="M20.4609 3.56766C18.3453 2.06549 15.9669 1.25181 13.5008 1.25181C9.08189 1.25181 4.96343 3.85558 2.09678 8.3621C0.970154 10.1272 0.970154 13.0939 2.09678 14.859C4.96343 19.3655 9.08189 21.9693 13.5008 21.9693C17.9197 21.9693 22.0381 19.3655 24.9048 14.859C26.0314 13.0939 26.0314 10.1272 24.9048 8.3621" stroke="#FD650B" stroke-width="2.5" stroke-linecap="round" stroke-linejoin="round"/>
</svg>
