<svg width="198" height="30" viewBox="0 0 198 30" fill="none" xmlns="http://www.w3.org/2000/svg">
<path d="M15 26.25C21.2132 26.25 26.25 21.2132 26.25 15C26.25 8.7868 21.2132 3.75 15 3.75C8.7868 3.75 3.75 8.7868 3.75 15C3.75 21.2132 8.7868 26.25 15 26.25Z" stroke="#FD650B" stroke-width="2" stroke-linecap="round" stroke-linejoin="round"/>
<path d="M19.6875 10.3126H17.8125C17.0666 10.3126 16.3512 10.6089 15.8238 11.1363C15.2963 11.6638 15 12.3792 15 13.1251V26.2501" stroke="#FD650B" stroke-width="2" stroke-linecap="round" stroke-linejoin="round"/>
<path d="M11.25 16.8751H18.75" stroke="#FD650B" stroke-width="2" stroke-linecap="round" stroke-linejoin="round"/>
<path d="M57.0041 10.3128C57.0042 9.23584 57.3751 8.19171 58.0544 7.35601C58.7338 6.5203 59.6801 5.94397 60.7344 5.72391C61.7887 5.50386 62.8866 5.6535 63.8435 6.14767C64.8005 6.64185 65.5581 7.45042 65.989 8.43746L70.1291 8.4375L66.3483 12.2183C66.1021 16.021 64.4179 19.5875 61.6377 22.1935C58.8575 24.7996 55.1897 26.2499 51.3791 26.25C47.6291 26.25 46.6916 24.8438 46.6916 24.8438C46.6916 24.8438 50.4416 23.4375 52.3166 20.625C52.3166 20.625 44.8166 16.875 46.6916 6.5625C46.6916 6.5625 51.3791 11.25 57.0024 12.1875L57.0041 10.3128Z" stroke="#FD650B" stroke-width="2" stroke-linecap="round" stroke-linejoin="round"/>
<path d="M99 19.6875C101.589 19.6875 103.688 17.5888 103.688 15C103.688 12.4112 101.589 10.3125 99 10.3125C96.4112 10.3125 94.3125 12.4112 94.3125 15C94.3125 17.5888 96.4112 19.6875 99 19.6875Z" stroke="#FD650B" stroke-width="2" stroke-miterlimit="10"/>
<path d="M104.156 4.21875H93.8438C90.7371 4.21875 88.2188 6.73715 88.2188 9.84375V20.1562C88.2188 23.2629 90.7371 25.7812 93.8438 25.7812H104.156C107.263 25.7812 109.781 23.2629 109.781 20.1562V9.84375C109.781 6.73715 107.263 4.21875 104.156 4.21875Z" stroke="#FD650B" stroke-width="2" stroke-linecap="round" stroke-linejoin="round"/>
<path d="M105.094 10.3125C105.87 10.3125 106.5 9.6829 106.5 8.90625C106.5 8.1296 105.87 7.5 105.094 7.5C104.317 7.5 103.688 8.1296 103.688 8.90625C103.688 9.6829 104.317 10.3125 105.094 10.3125Z" fill="#FD650B"/>
<path d="M150.844 4.21875H131.156C130.638 4.21875 130.219 4.63848 130.219 5.15625V24.8438C130.219 25.3615 130.638 25.7812 131.156 25.7812H150.844C151.362 25.7812 151.781 25.3615 151.781 24.8438V5.15625C151.781 4.63848 151.362 4.21875 150.844 4.21875Z" stroke="#FD650B" stroke-width="2" stroke-linecap="round" stroke-linejoin="round"/>
<path d="M140.062 13.1251V20.6251" stroke="#FD650B" stroke-width="2" stroke-linecap="round" stroke-linejoin="round"/>
<path d="M136.312 13.1251V20.6251" stroke="#FD650B" stroke-width="2" stroke-linecap="round" stroke-linejoin="round"/>
<path d="M140.062 16.4063C140.062 15.5361 140.408 14.7015 141.024 14.0861C141.639 13.4708 142.474 13.1251 143.344 13.1251C144.214 13.1251 145.049 13.4708 145.664 14.0861C146.279 14.7015 146.625 15.5361 146.625 16.4063V20.6251" stroke="#FD650B" stroke-width="2" stroke-linecap="round" stroke-linejoin="round"/>
<path d="M136.312 10.7812C137.089 10.7812 137.719 10.1517 137.719 9.375C137.719 8.59835 137.089 7.96875 136.312 7.96875C135.536 7.96875 134.906 8.59835 134.906 9.375C134.906 10.1517 135.536 10.7812 136.312 10.7812Z" fill="#FD650B"/>
<path d="M186.75 15L181.125 11.25V18.75L186.75 15Z" stroke="#FD650B" stroke-width="2" stroke-linecap="round" stroke-linejoin="round"/>
<path d="M170.812 15C170.812 18.4869 171.173 20.5328 171.447 21.5843C171.52 21.8715 171.66 22.1371 171.857 22.3591C172.053 22.5812 172.299 22.7532 172.575 22.861C176.499 24.3686 183 24.3272 183 24.3272C183 24.3272 189.501 24.3686 193.425 22.861C193.701 22.7532 193.947 22.5812 194.143 22.3592C194.34 22.1371 194.48 21.8715 194.553 21.5844C194.827 20.5329 195.188 18.4869 195.188 15C195.188 11.513 194.827 9.4671 194.553 8.41559C194.48 8.12842 194.34 7.86282 194.143 7.6408C193.947 7.41878 193.701 7.24673 193.425 7.13891C189.501 5.63132 183 5.67272 183 5.67272C183 5.67272 176.499 5.63132 172.575 7.1389C172.299 7.24671 172.053 7.41876 171.857 7.64078C171.66 7.8628 171.52 8.1284 171.447 8.41557C171.173 9.46707 170.812 11.513 170.812 15Z" stroke="#FD650B" stroke-width="2" stroke-linecap="round" stroke-linejoin="round"/>
</svg>
