<svg width="214" height="30" viewBox="0 0 214 30" fill="none" xmlns="http://www.w3.org/2000/svg">
<path d="M15 26.25C21.2132 26.25 26.25 21.2132 26.25 15C26.25 8.7868 21.2132 3.75 15 3.75C8.7868 3.75 3.75 8.7868 3.75 15C3.75 21.2132 8.7868 26.25 15 26.25Z" stroke="#6E6E6E" stroke-width="2.3" stroke-linecap="round" stroke-linejoin="round"/>
<path d="M19.6875 10.3125H17.8125C17.4427 10.311 17.0763 10.3827 16.7344 10.5235C16.3925 10.6642 16.0818 10.8714 15.8203 11.1328C15.5589 11.3943 15.3517 11.705 15.211 12.0469C15.0702 12.3888 14.9985 12.7552 15 13.125V26.25" stroke="#6E6E6E" stroke-width="2.3" stroke-linecap="round" stroke-linejoin="round"/>
<path d="M11.25 16.875H18.75" stroke="#6E6E6E" stroke-width="2.3" stroke-linecap="round" stroke-linejoin="round"/>
<path d="M70.8438 4.21875H51.1562C50.6385 4.21875 50.2188 4.63848 50.2188 5.15625V24.8438C50.2188 25.3615 50.6385 25.7812 51.1562 25.7812H70.8438C71.3615 25.7812 71.7812 25.3615 71.7812 24.8438V5.15625C71.7812 4.63848 71.3615 4.21875 70.8438 4.21875Z" stroke="#6E6E6E" stroke-width="2.3" stroke-linecap="round" stroke-linejoin="round"/>
<path d="M60.0625 13.125V20.625" stroke="#6E6E6E" stroke-width="2.3" stroke-linecap="round" stroke-linejoin="round"/>
<path d="M56.3125 13.125V20.625" stroke="#6E6E6E" stroke-width="2.3" stroke-linecap="round" stroke-linejoin="round"/>
<path d="M60.0625 16.4062C60.0625 15.536 60.4082 14.7014 61.0236 14.0861C61.6389 13.4707 62.4735 13.125 63.3438 13.125C64.214 13.125 65.0486 13.4707 65.6639 14.0861C66.2793 14.7014 66.625 15.536 66.625 16.4062V20.625" stroke="#6E6E6E" stroke-width="2.3" stroke-linecap="round" stroke-linejoin="round"/>
<path d="M56.3125 10.7812C57.0892 10.7812 57.7188 10.1517 57.7188 9.375C57.7188 8.59835 57.0892 7.96875 56.3125 7.96875C55.5358 7.96875 54.9062 8.59835 54.9062 9.375C54.9062 10.1517 55.5358 10.7812 56.3125 10.7812Z" fill="#6E6E6E"/>
<path d="M107.004 10.3124C107.004 7.73431 109.172 5.58978 111.75 5.62494C112.653 5.63536 113.534 5.90633 114.286 6.40526C115.039 6.9042 115.631 7.60986 115.992 8.43744H120.129L116.344 12.2226C116.1 16.0248 114.416 19.5913 111.637 22.197C108.857 24.8026 105.189 26.2518 101.379 26.2499C97.6291 26.2499 96.6916 24.8437 96.6916 24.8437C96.6916 24.8437 100.442 23.4374 102.317 20.6249C102.317 20.6249 94.8166 16.8749 96.6916 6.56244C96.6916 6.56244 101.379 11.2499 107.004 12.1874V10.3124Z" stroke="#6E6E6E" stroke-width="2.3" stroke-linecap="round" stroke-linejoin="round"/>
<path d="M156.75 15L151.125 11.25V18.75L156.75 15Z" stroke="#6E6E6E" stroke-width="2.3" stroke-linecap="round" stroke-linejoin="round"/>
<path d="M140.812 15.0001C140.812 18.4923 141.176 20.5313 141.445 21.586C141.52 21.8722 141.66 22.1369 141.856 22.3588C142.051 22.5806 142.296 22.7535 142.57 22.8634C146.496 24.3634 153 24.3282 153 24.3282C153 24.3282 159.504 24.3634 163.43 22.8634C163.704 22.7535 163.949 22.5806 164.144 22.3588C164.34 22.1369 164.48 21.8722 164.555 21.586C164.824 20.5313 165.188 18.4923 165.188 15.0001C165.188 11.5079 164.824 9.46882 164.555 8.41413C164.48 8.12796 164.34 7.86326 164.144 7.64139C163.949 7.41951 163.704 7.24666 163.43 7.13679C159.504 5.63679 153 5.67195 153 5.67195C153 5.67195 146.496 5.63679 142.57 7.13679C142.296 7.24666 142.051 7.41951 141.856 7.64139C141.66 7.86326 141.52 8.12796 141.445 8.41413C141.176 9.46882 140.812 11.5079 140.812 15.0001Z" stroke="#6E6E6E" stroke-width="2.3" stroke-linecap="round" stroke-linejoin="round"/>
<path d="M189.625 16.875C190.611 16.8719 191.587 17.0638 192.499 17.4396C193.41 17.8155 194.238 18.3678 194.935 19.0648C195.632 19.7619 196.185 20.5899 196.56 21.5013C196.936 22.4126 197.128 23.3893 197.125 24.375" stroke="#6E6E6E" stroke-width="2.3" stroke-linecap="round" stroke-linejoin="round"/>
<path d="M189.625 11.25C193.106 11.25 196.444 12.6328 198.906 15.0942C201.367 17.5556 202.75 20.894 202.75 24.375" stroke="#6E6E6E" stroke-width="2.3" stroke-linecap="round" stroke-linejoin="round"/>
<path d="M189.625 5.62503C192.088 5.6204 194.527 6.10371 196.802 7.04706C199.077 7.9904 201.142 9.37508 202.879 11.1211C204.625 12.8579 206.01 14.9233 206.953 17.1982C207.896 19.4731 208.38 21.9123 208.375 24.375" stroke="#6E6E6E" stroke-width="2.3" stroke-linecap="round" stroke-linejoin="round"/>
<path d="M190.094 25.3125C190.87 25.3125 191.5 24.6829 191.5 23.9062C191.5 23.1296 190.87 22.5 190.094 22.5C189.317 22.5 188.688 23.1296 188.688 23.9062C188.688 24.6829 189.317 25.3125 190.094 25.3125Z" fill="#6E6E6E"/>
</svg>
