<svg width="40" height="41" viewBox="0 0 40 41" fill="none" xmlns="http://www.w3.org/2000/svg">
<path d="M35.5957 24.8156L19.9999 15.2194L4.40569 24.8181C3.81697 25.1794 3.04695 24.997 2.6869 24.4083C2.32436 23.8208 2.50804 23.0508 3.09677 22.6895L19.346 12.6882C19.7472 12.4406 20.2547 12.4406 20.656 12.6881L36.9068 22.6868C37.4955 23.0492 37.6781 23.8179 37.3169 24.4055C36.952 24.9968 36.1795 25.1756 35.5957 24.8156Z" fill="#FD650B"/>
<path d="M23.127 27.5018L16.877 27.5023C16.532 27.5023 16.252 27.7823 16.2521 28.1273L16.2528 37.5023L7.50282 37.503L7.50182 25.1143L20.0012 17.422L32.5018 25.1135L32.5028 37.501L23.7528 37.5017L23.7521 28.1267C23.752 27.7817 23.472 27.5017 23.127 27.5018ZM35 2.5008L35.0006 10.2883C35.0007 10.6433 34.5719 10.8208 34.3207 10.5696L31.7304 7.97981L27.3558 12.3552C26.8483 12.864 26.0621 12.9578 25.4471 12.5903L20.0105 9.32951L2.50142 20.1072L2.50112 16.4384L19.1815 6.17207C19.6778 5.86578 20.3028 5.86198 20.8053 6.16319L26.0093 9.28527L29.5215 5.77249L26.9313 3.1827C26.6788 2.93022 26.8575 2.50145 27.2125 2.50143L35 2.5008Z" fill="#FD650B"/>
</svg>
