<svg width="465" height="479" viewBox="0 0 465 479" fill="none" xmlns="http://www.w3.org/2000/svg">
<path fill-rule="evenodd" clip-rule="evenodd" d="M361.213 126.125L358.087 131.286L378.991 131.167L376.116 125.774" fill="white"/>
<path fill-rule="evenodd" clip-rule="evenodd" d="M364.369 1.88639C357.57 15.6731 353.294 32.4105 351.548 52.0904C349.744 72.3935 350.522 97.038 353.882 126.024L382.043 125.648C384.551 96.312 384.676 71.6555 382.414 51.6827C380.225 32.308 375.599 15.6964 368.548 1.83599C368.147 1.04949 367.333 0.560959 366.452 0.570515C365.566 0.583367 364.76 1.09244 364.369 1.88639Z" fill="#FD650B"/>
<path fill-rule="evenodd" clip-rule="evenodd" d="M355.839 25.9298L376.952 25.1903C372.192 8.47627 368.64 0.181023 366.294 0.309459C363.948 0.43748 360.463 8.97772 355.839 25.9298Z" fill="#883402"/>
<path fill-rule="evenodd" clip-rule="evenodd" d="M375.744 131.416L377.068 145.854L371.715 139.208L367.755 145.608L365.3 138.974L359.273 144.951L360.913 131.5L357.101 131.521L360.633 125.689L361.383 126.146L358.663 130.636L378.057 130.524L375.523 125.773L376.299 125.359L379.515 131.395L375.744 131.416Z" fill="#1A1A1A"/>
<path d="M350.967 51.9181C349.161 72.2527 349.942 96.9249 353.306 125.939C353.33 126.163 353.522 126.331 353.748 126.327L381.905 125.955C382.131 125.951 382.316 125.779 382.338 125.552C384.85 96.1868 384.974 71.5039 382.71 51.4971C380.51 32.0776 375.873 15.413 368.797 1.50285C368.318 0.57031 367.351 -0.0136698 366.301 0.000147004C365.252 0.0139691 364.298 0.615562 363.836 1.5545C357.005 15.4002 352.719 32.1861 350.967 51.9181ZM354.133 125.443C350.813 96.6562 350.053 72.1703 351.843 51.995C353.583 32.3672 357.846 15.6823 364.621 1.94648C364.942 1.29795 365.596 0.885108 366.314 0.877354C367.03 0.867516 367.688 1.26555 368.014 1.90147C375.039 15.7116 379.65 32.2743 381.837 51.5969C384.085 71.4476 383.969 95.9464 381.493 125.083L354.133 125.443Z" fill="#1A1A1A"/>
<path fill-rule="evenodd" clip-rule="evenodd" d="M353.401 82.7578L354.821 87.8974L353.97 125.689L340.362 140.889L337.961 140.921L353.401 82.7578ZM381.843 82.2584L397.812 140.278L395.407 140.272L381.664 125.192L380.472 87.4099L381.843 82.2584Z" fill="white"/>
<path d="M352.92 82.9956C353.035 82.5627 353.65 82.559 353.771 82.9888L355.19 88.1279L355.203 88.2576L354.357 126.045C354.354 126.15 354.314 126.251 354.243 126.33L340.635 141.53C340.553 141.622 340.435 141.677 340.312 141.678L337.911 141.71C337.619 141.715 337.405 141.44 337.48 141.159L352.92 82.9956ZM338.477 140.825L340.11 140.801L353.479 125.867L354.324 88.3023L353.353 84.7877L338.477 140.825ZM354.326 88.2373L354.343 88.3628L354.324 88.3023L354.326 88.2373ZM381.362 82.4962C381.477 82.0633 382.092 82.0597 382.208 82.4935L398.178 140.514C398.256 140.792 398.044 141.069 397.754 141.068L395.353 141.057C395.229 141.057 395.112 141.005 395.03 140.914L381.283 125.838C381.213 125.759 381.172 125.66 381.168 125.556L379.976 87.7743L379.991 87.6477L381.362 82.4962ZM380.855 87.8123L382.042 125.365L395.548 140.181L397.178 140.188L381.795 84.2874L380.855 87.8123Z" fill="#1A1A1A"/>
<path d="M373.512 56.22C376.954 52.807 376.979 47.2454 373.564 43.8021C370.15 40.3587 364.588 40.3371 361.146 43.7501C357.705 47.1631 357.68 52.7246 361.094 56.168C364.509 59.6113 370.071 59.6329 373.512 56.22Z" fill="white"/>
<path d="M373.759 56.3052C377.375 52.7191 377.398 46.8819 373.813 43.2665C370.227 39.6506 364.391 39.6258 360.774 43.2119C357.158 46.798 357.134 52.6348 360.72 56.2507C364.305 59.8661 370.142 59.8913 373.759 56.3052ZM373.14 55.6817C369.869 58.9257 364.587 58.9036 361.343 55.6324C358.099 52.3611 358.121 47.0794 361.393 43.8354C364.664 40.5914 369.946 40.6135 373.19 43.8848C376.434 47.156 376.412 52.4377 373.14 55.6817Z" fill="#1A1A1A"/>
<path d="M370.524 53.2072C368.745 54.9714 365.872 54.9593 364.108 53.1803C362.344 51.4013 362.356 48.5286 364.135 46.7644C365.914 45.0002 368.787 45.0122 370.551 46.7912C372.315 48.5703 372.303 51.4429 370.524 53.2072ZM369.906 52.5837C371.34 51.1616 371.35 48.8444 369.927 47.4095C368.504 45.9747 366.187 45.9658 364.753 47.3879C363.319 48.81 363.309 51.1271 364.732 52.562C366.155 53.9969 368.472 54.0057 369.906 52.5837ZM355.648 26.1595L355.62 25.2835L377.036 24.6571L377.063 25.5331L355.648 26.1595Z" fill="#1A1A1A"/>
<path fill-rule="evenodd" clip-rule="evenodd" d="M307.049 196.124C307.193 194.067 307.812 174.873 308.907 138.542C309.181 129.449 302.883 121.473 293.973 119.632C293.376 119.509 293.077 119.447 293.077 119.447C282.324 118.696 272.753 126.221 270.947 136.848L261.726 191.1" fill="white"/>
<path d="M293.179 119.865L294.046 120.044C302.747 121.841 308.898 129.63 308.63 138.51C307.536 174.817 306.916 194.027 306.772 196.075C306.755 196.317 306.938 196.526 307.18 196.543C307.421 196.56 307.632 196.378 307.649 196.136C307.793 194.069 308.412 174.893 309.508 138.536C309.788 129.23 303.342 121.067 294.223 119.184L293.327 118.999L293.269 118.991C282.291 118.223 272.519 125.906 270.675 136.756L261.455 191.007C261.415 191.247 261.576 191.473 261.814 191.514C262.054 191.555 262.28 191.394 262.321 191.155L271.541 136.903C273.307 126.508 282.662 119.144 293.179 119.865Z" fill="#1A1A1A"/>
<path fill-rule="evenodd" clip-rule="evenodd" d="M314.197 191.349L318.907 154.727C319.361 151.201 316.87 147.976 313.344 147.522C313.072 147.487 312.798 147.469 312.524 147.469C308.159 147.469 304.289 150.276 302.934 154.425L290.864 191.374L314.197 191.349Z" fill="white"/>
<path d="M314.578 191.519C314.799 191.519 314.985 191.355 315.013 191.136L319.724 154.514C320.208 150.748 317.548 147.302 313.781 146.817C313.49 146.78 313.198 146.762 312.905 146.762C308.35 146.762 304.312 149.69 302.897 154.02L290.828 190.968C290.735 191.252 290.947 191.544 291.245 191.544L314.578 191.519ZM314.191 190.642L291.85 190.665L303.732 154.292C305.028 150.324 308.73 147.64 312.905 147.64C313.16 147.64 313.416 147.655 313.67 147.688C316.955 148.111 319.275 151.117 318.853 154.402L314.191 190.642Z" fill="#1A1A1A"/>
<path fill-rule="evenodd" clip-rule="evenodd" d="M198.081 281.231L242.789 266.657C247.856 265.006 251.553 260.629 252.333 255.357L261.889 190.788H313.696L304.529 272.829C302.915 287.28 295.13 300.327 283.18 308.612L232.327 343.867L198.081 281.231Z" fill="#FD650B"/>
<path fill-rule="evenodd" clip-rule="evenodd" d="M305.501 265.426C295.159 271.085 287.647 277.524 282.964 284.743C278.281 291.963 274.281 302.793 270.963 317.233C273.828 315.143 276.267 313.387 278.281 311.964C286.527 306.136 292.865 300.836 296.721 294.695C301.989 286.305 304.916 276.548 305.501 265.426Z" fill="#883402"/>
<path d="M249.227 261.674C249.231 261.668 249.235 261.663 249.238 261.657C249.25 261.641 249.262 261.627 249.275 261.613C250.686 259.797 251.64 257.62 251.99 255.257L261.537 190.748C261.569 190.533 261.754 190.374 261.971 190.374H313.778C314.04 190.374 314.244 190.601 314.215 190.861L310.234 226.492C310.302 226.577 310.338 226.687 310.328 226.805C310.317 226.928 310.255 227.036 310.165 227.108L305.054 272.852C303.422 287.458 295.542 300.641 283.449 308.995L232.869 343.936C232.706 344.048 232.489 344.039 232.338 343.912C225.377 338.106 219.584 330.743 214.96 321.825C210.348 312.93 205.169 299.151 199.418 280.482C199.347 280.252 199.474 280.008 199.704 279.934L242.663 266.23C245.309 265.386 247.575 263.776 249.227 261.674ZM214.131 276.254L200.385 280.639C206.071 299.051 211.191 312.647 215.74 321.421C220.255 330.128 225.89 337.328 232.645 343.024L245.535 334.119L214.131 276.254ZM214.983 275.982L246.262 333.617L282.95 308.272C294.833 300.064 302.577 287.108 304.181 272.754L309.277 227.151L257.752 222.519C257.742 222.519 257.732 222.518 257.723 222.516L252.858 255.385C252.507 257.759 251.583 259.956 250.219 261.819L280.877 283.801C281.074 283.943 281.119 284.216 280.978 284.414C280.837 284.611 280.563 284.656 280.365 284.514L249.679 262.513C247.943 264.605 245.621 266.208 242.93 267.067L214.983 275.982ZM257.852 221.647L309.374 226.278L313.288 191.252H262.351L257.852 221.647Z" fill="#1A1A1A"/>
<path fill-rule="evenodd" clip-rule="evenodd" d="M117.591 290.304C117.591 290.304 103.932 297.426 76.6137 311.671L88.2384 333.013L123.445 309.305C119.542 296.637 117.591 290.304 117.591 290.304Z" fill="#883402"/>
<path fill-rule="evenodd" clip-rule="evenodd" d="M389.211 387.187L380.723 318.111L385.114 316.062L403.261 289.134L406.48 288.256C407.645 287.978 408.523 287.978 409.115 288.256C409.706 288.535 410.487 289.315 411.456 290.597V372.552C410.812 374.102 410.226 375.175 409.7 375.772C409.174 376.368 408.296 376.954 407.066 377.528L389.211 387.187ZM311.062 448.067L366.674 427.579L369.308 435.189L405.602 444.555L407.066 447.189C406.736 449.124 406.345 450.49 405.895 451.287C405.445 452.084 404.567 452.962 403.261 453.921L327.453 471.776C325.885 471.933 324.616 471.737 323.648 471.19C322.68 470.643 321.704 469.57 320.721 467.971L311.062 448.067Z" fill="white"/>
<path d="M117.179 289.939L76.2014 311.306C75.9836 311.419 75.9011 311.69 76.0187 311.905L87.6434 333.248C87.7675 333.475 88.0596 333.546 88.2745 333.402L123.48 309.694C123.641 309.585 123.712 309.385 123.655 309.2L117.801 290.199C117.72 289.937 117.422 289.813 117.179 289.939ZM122.72 309.147L88.1837 332.404L77.0034 311.878L117.117 290.962L122.72 309.147Z" fill="#1A1A1A"/>
<path fill-rule="evenodd" clip-rule="evenodd" d="M243.154 362.893V363.796L203.055 286.207L146.272 310.208C147.331 344.86 152.181 367.885 160.824 379.284C169.467 390.683 184.812 394.293 206.86 390.114H238.764L243.154 362.893Z" fill="#FD650B"/>
<path d="M243.677 362.893V363.796C243.677 363.965 243.594 364.092 243.478 364.165L239.281 390.184C239.247 390.396 239.063 390.553 238.847 390.553H206.985C184.812 394.747 169.313 391.096 160.558 379.549C151.844 368.057 146.978 344.958 145.917 310.221C145.912 310.04 146.018 309.874 146.185 309.803L202.968 285.802C203.179 285.713 203.424 285.802 203.529 286.006L243.057 362.489C243.317 362.38 243.677 362.527 243.677 362.893ZM243.564 363.627L243.584 363.508L243.517 363.379C243.557 363.455 243.573 363.542 243.564 363.627ZM202.936 286.769L146.804 310.495C147.879 344.895 152.711 367.746 161.258 379.019C169.783 390.262 184.962 393.833 206.862 389.682L206.944 389.674H238.474L242.671 363.654L202.936 286.769Z" fill="#1A1A1A"/>
<path fill-rule="evenodd" clip-rule="evenodd" d="M232.621 343.868L235.548 349.429C226.554 356.524 219.432 361.499 214.181 364.356C208.931 367.213 203.175 369.847 196.913 372.259L193.4 366.112C199.108 363.648 204.572 360.916 209.791 357.917C215.01 354.918 222.62 350.235 232.621 343.868Z" fill="#883402"/>
<path fill-rule="evenodd" clip-rule="evenodd" d="M249.886 462.994L388.624 387.772L381.014 318.403L243.447 386.016" fill="#883402"/>
<path d="M232.373 343.211C222.082 350.148 214.09 355.215 208.401 358.412C202.724 361.604 197.383 364.031 192.38 365.696C192.15 365.772 192.026 366.021 192.102 366.251C192.179 366.481 192.427 366.606 192.657 366.529C197.716 364.846 203.108 362.395 208.832 359.178C214.545 355.966 222.554 350.888 232.863 343.939C233.064 343.803 233.117 343.53 232.982 343.33C232.846 343.128 232.573 343.076 232.373 343.211Z" fill="#1A1A1A"/>
<path d="M235.493 349.079C225.94 356.324 217.595 361.873 210.462 365.726C203.359 369.562 198.517 371.596 195.996 371.822C195.755 371.843 195.576 372.056 195.598 372.298C195.62 372.539 195.833 372.718 196.074 372.696C198.756 372.456 203.67 370.392 210.878 366.499C218.056 362.622 226.437 357.049 236.024 349.779C236.218 349.632 236.255 349.357 236.109 349.164C235.962 348.97 235.687 348.932 235.493 349.079Z" fill="#1A1A1A"/>
<path d="M388.301 387.375C388.286 387.338 388.275 387.298 388.27 387.257L380.663 318.789L243.432 386.41C243.214 386.517 242.951 386.428 242.844 386.21C242.737 385.993 242.826 385.729 243.043 385.622L384.311 316.012L402.382 289.37C403.018 288.432 404.083 287.878 405.216 287.893C405.618 287.899 406.002 287.975 406.357 288.11C406.381 288.069 406.421 288.02 406.478 287.963C406.673 287.768 406.902 287.645 407.163 287.593C407.427 287.54 407.695 287.513 407.963 287.513C410.236 287.509 412.082 289.349 412.085 291.622L412.208 370.242C412.213 373.623 410.529 376.95 407.294 377.767L407.293 377.827C407.291 377.986 407.202 378.131 407.063 378.206L249.886 463.381C249.673 463.496 249.406 463.417 249.291 463.204C249.175 462.991 249.254 462.724 249.467 462.608L388.301 387.375ZM389.118 386.932L406.419 377.557L407.655 291.295C407.675 289.921 406.577 288.792 405.203 288.772C404.366 288.76 403.579 289.17 403.109 289.863L384.972 316.601C384.93 316.664 384.872 316.715 384.803 316.749L381.417 318.417C381.48 318.484 381.522 318.571 381.533 318.669L389.118 386.932ZM407.26 288.623C408.049 289.25 408.549 290.222 408.534 291.308L407.307 376.852C410.001 376.036 411.335 373.139 411.33 370.244L411.207 291.623C411.205 289.835 409.753 288.388 407.965 288.391C407.753 288.391 407.543 288.412 407.335 288.454C407.309 288.518 407.284 288.574 407.26 288.623Z" fill="#1A1A1A"/>
<path fill-rule="evenodd" clip-rule="evenodd" d="M139.25 376.963L143.724 401.257L177.088 460.146C185.866 475.641 204.578 482.494 221.288 476.333L232.982 472.022C244.232 467.874 253.937 460.372 260.784 450.529L291.007 407.09L311.062 448.067L366.674 427.578L327.578 335.117C323.295 324.986 313.363 318.403 302.365 318.403C290.742 318.403 279.594 323.007 271.359 331.208L218.947 383.402" fill="#FD650B"/>
<path fill-rule="evenodd" clip-rule="evenodd" d="M269.205 333.331C278.571 340.55 288.328 345.722 298.475 348.844C308.621 351.965 319.841 351.283 332.134 346.795C329.391 337.704 326.366 331.362 323.061 327.77C319.124 323.489 311.782 319.679 307.548 318.696C301.993 317.406 291.734 318.899 283.547 322.794C279.609 324.668 274.828 328.18 269.205 333.331Z" fill="#883402"/>
<path d="M406.924 446.245L407.082 446.206L407.088 446.233C407.999 450.014 405.673 453.819 401.891 454.73L328.773 472.358C325.474 473.153 322.063 471.633 320.44 468.675C320.301 468.653 320.177 468.565 320.113 468.432L290.935 407.936L261.142 450.758C254.243 460.675 244.465 468.233 233.131 472.413L221.437 476.724C204.526 482.959 185.588 476.023 176.703 460.341L143.339 401.452C143.315 401.41 143.298 401.363 143.289 401.315L138.816 377.022C138.772 376.783 138.93 376.554 139.168 376.51C139.407 376.466 139.636 376.624 139.68 376.862L144.139 401.083L177.467 459.908C186.139 475.216 204.626 481.986 221.133 475.9L232.827 471.588C243.993 467.472 253.625 460.026 260.422 450.257L290.643 406.818C290.836 406.542 291.253 406.575 291.4 406.878L311.043 447.605L366.028 427.348L333.03 349.175C313.505 358.694 291.679 354.128 267.608 335.539L219.253 383.692C219.081 383.864 218.804 383.863 218.632 383.691C218.461 383.519 218.462 383.241 218.634 383.07L271.046 330.876C279.364 322.593 290.624 317.943 302.362 317.943C313.536 317.943 323.625 324.635 327.97 334.93L366.927 427.222C366.996 427.271 367.052 427.341 367.084 427.427C367.11 427.499 367.116 427.573 367.106 427.644L370.001 434.502L404.387 443.184C405.616 443.494 406.566 444.468 406.846 445.705C406.887 445.885 406.912 446.066 406.924 446.245ZM406.396 448.266C405.935 448.984 405.204 449.527 404.306 449.73L321.353 468.501C322.836 470.949 325.748 472.184 328.568 471.504L401.686 453.877C404.382 453.227 406.233 450.897 406.396 448.266ZM311.426 448.4L320.752 467.736L404.112 448.874C405.452 448.571 406.293 447.239 405.99 445.899C405.783 444.985 405.081 444.265 404.172 444.035L369.574 435.3C369.44 435.266 369.33 435.172 369.277 435.045L366.369 428.157L311.426 448.4ZM332.688 348.365L327.161 335.271C322.953 325.301 313.183 318.821 302.362 318.821C290.856 318.821 279.818 323.379 271.666 331.498L268.235 334.914C292.045 353.271 313.512 357.735 332.688 348.365Z" fill="#1A1A1A"/>
<path fill-rule="evenodd" clip-rule="evenodd" d="M167.933 280.353L58.4549 350.267C33.5524 366.171 24.4057 398.138 37.1262 424.807L44.9769 441.266C58.8963 470.446 93.8352 482.818 123.016 468.899C124.574 468.156 126.099 467.344 127.585 466.466L177.668 436.883C186.995 431.373 194.611 423.384 199.667 413.803L200.275 412.651C205.515 402.722 205.679 390.884 200.716 380.815L188.421 355.868C170.171 369.475 160.317 378.841 158.859 383.967C157.559 388.537 142.678 397.954 114.217 412.216C108.044 415.309 100.531 413.142 96.9542 407.236C94.0811 402.492 95.5979 396.318 100.341 393.445C100.884 393.116 101.456 392.84 102.05 392.619L155.347 372.844" fill="#FD650B"/>
<path fill-rule="evenodd" clip-rule="evenodd" d="M35.6382 422.017C37.1017 426.115 43.4561 438.943 45.8825 443.091C48.4348 447.455 51.151 451.579 54.6634 455.677C58.1418 459.735 62.8214 463.747 69.8835 467.385C72.2461 468.602 74.7832 469.87 77.4936 471.19C75.6707 455.806 73.6218 445.074 71.347 438.993C69.503 434.063 67.6274 429.122 64.9077 425.237C58.078 415.48 47.0393 405.619 31.7922 395.651C30.4534 402.301 31.7354 411.09 35.6382 422.017Z" fill="#883402"/>
<path fill-rule="evenodd" clip-rule="evenodd" d="M160.908 378.405L161.493 386.015C168.537 399.348 172.867 407.396 174.484 410.161C176.186 413.07 179.563 420.242 184.616 431.676C190.279 426.771 194.767 421.698 198.08 416.456C201.394 411.213 203.442 405.945 204.227 400.65C205.007 393.625 203.056 385.723 198.373 376.942C196.037 372.562 192.622 365.244 188.129 354.99C175.392 361.734 166.513 367.296 161.493 371.673C156.474 376.051 156.279 378.295 160.908 378.405Z" fill="white"/>
<path d="M200.114 380.741C205.015 390.684 204.853 402.374 199.679 412.178L199.07 413.331C194.052 422.839 186.494 430.769 177.237 436.236L126.974 465.926C125.553 466.765 124.097 467.544 122.609 468.259C93.6928 482.168 58.9762 470.002 45.0674 441.085L37.5077 425.367C24.8673 399.088 33.6657 367.51 58.073 351.553L166.418 280.721C166.621 280.588 166.678 280.316 166.546 280.113C166.413 279.91 166.141 279.853 165.938 279.985L57.5924 350.819C32.8163 367.017 23.8851 399.071 36.7162 425.747L44.2765 441.466C58.3949 470.819 93.6366 483.169 122.99 469.05C124.5 468.324 125.979 467.534 127.421 466.682L177.683 436.993C187.081 431.442 194.753 423.392 199.847 413.74L200.455 412.588C205.761 402.535 205.927 390.548 200.902 380.353L188.607 355.406C188.502 355.194 188.249 355.103 188.034 355.199C173.476 361.726 164.544 366.611 161.188 369.896C159.653 371.399 158.802 373.298 158.454 375.6C158.237 377.036 158.221 378.276 158.31 380.494C158.388 382.443 158.382 383.04 158.228 383.578C156.982 387.96 142.083 397.389 113.813 411.555C107.844 414.546 100.58 412.45 97.1214 406.74C94.4169 402.274 95.8446 396.461 100.311 393.756C100.861 393.423 101.443 393.147 102.049 392.932L157.544 373.258C157.772 373.178 157.892 372.926 157.811 372.698C157.73 372.469 157.479 372.35 157.25 372.431L101.756 392.104C101.093 392.339 100.457 392.641 99.8557 393.005C94.9748 395.961 93.4141 402.314 96.3703 407.195C100.066 413.297 107.828 415.536 114.206 412.34C142.857 397.983 157.719 388.578 159.073 383.819C159.264 383.147 159.27 382.537 159.187 380.459C159.101 378.294 159.116 377.096 159.322 375.732C159.644 373.605 160.417 371.88 161.802 370.524C165.027 367.367 173.778 362.569 188.007 356.174L200.114 380.741Z" fill="#1A1A1A"/>
<path fill-rule="evenodd" clip-rule="evenodd" d="M203.142 286.148C192.914 263.426 186.767 248.331 184.702 240.863C178.006 216.655 173.334 195.54 148.324 195.54C123.314 195.54 103.04 215.815 103.04 240.826C103.04 247.949 109.187 270.792 121.48 309.353C139.61 309.281 154.278 308.378 165.484 306.645C176.69 304.912 189.243 298.08 203.142 286.148Z" fill="#FD650B" stroke="#1A1A1A" stroke-width="0.877811" stroke-linecap="round" stroke-linejoin="round"/>
<path fill-rule="evenodd" clip-rule="evenodd" d="M203.06 286.079C192.832 263.357 186.686 248.262 184.62 240.794C177.924 216.587 173.251 195.472 148.242 195.472C123.232 195.472 102.958 215.747 102.958 240.757C102.958 247.88 109.104 270.723 121.398 309.284C139.528 309.212 154.196 308.309 165.402 306.576C176.608 304.843 189.161 298.011 203.06 286.079Z" fill="#FD650B"/>
<path fill-rule="evenodd" clip-rule="evenodd" d="M203.06 286.079C192.832 263.357 186.686 248.262 184.62 240.794C177.924 216.587 173.251 195.472 148.242 195.472C123.232 195.472 102.958 215.747 102.958 240.757C102.958 247.88 109.104 270.723 121.398 309.284C139.528 309.212 154.196 308.309 165.402 306.576C176.608 304.843 189.161 298.011 203.06 286.079Z" stroke="#1A1A1A" stroke-width="0.877811" stroke-linecap="round" stroke-linejoin="round"/>
<path d="M203.457 285.898C193.239 263.197 187.098 248.115 185.04 240.676C184.771 239.702 183.578 235.355 183.256 234.195C179.317 219.979 176.59 212.72 172.202 206.62C166.659 198.918 159.078 195.032 148.239 195.032C122.987 195.032 102.516 215.503 102.516 240.756C102.516 247.948 108.664 270.793 120.977 309.417C121.035 309.6 121.205 309.723 121.397 309.723C139.548 309.65 154.236 308.746 165.467 307.009C176.766 305.262 189.388 298.392 203.343 286.411C203.491 286.284 203.537 286.075 203.457 285.898ZM165.333 306.141C154.217 307.861 139.677 308.761 121.715 308.843C109.508 270.531 103.394 247.793 103.394 240.756C103.394 215.988 123.472 195.91 148.239 195.91C158.796 195.91 166.112 199.66 171.489 207.133C175.797 213.12 178.498 220.313 182.41 234.43C182.731 235.588 183.924 239.935 184.194 240.91C186.259 248.374 192.365 263.383 202.522 285.958C188.779 297.709 176.379 304.433 165.333 306.141Z" fill="#1A1A1A"/>
<path d="M127.059 261.596C127.059 261.596 151.51 271.197 188.663 258.14C189.301 257.916 190.001 257.515 190.765 256.937C188.844 253.094 187.673 250.459 187.252 249.034C185.54 243.231 185.382 239.546 183.447 235.863C182.197 233.482 181.76 229.421 180.52 225.618C179.852 223.567 178.583 220.347 176.715 215.959C174.859 212.275 173.591 209.836 172.91 208.642C171.868 206.814 171.868 205.03 170.51 205.228C163.167 206.297 155.249 211.059 146.755 219.516C127.016 239.167 127.059 261.596 127.059 261.596Z" fill="#1A1A1A"/>
<path fill-rule="evenodd" clip-rule="evenodd" d="M142.763 223.863C144.812 221.521 145.946 220.055 147.739 218.301C149.532 216.548 151.837 214.496 155.935 211.569C158.081 217.228 160.227 223.375 162.959 231.765C167.057 244.351 160.568 246.336 152.715 237.912C147.479 232.296 144.357 227.808 142.763 223.863ZM165.98 223.135C167.44 223.237 168.235 229.572 168.681 230.66C168.93 231.265 168.64 231.959 168.034 232.207C167.48 232.434 166.844 232.213 166.55 231.692C164.839 228.656 163.991 226.833 164.003 226.225C164.035 224.686 164.52 223.033 165.98 223.135Z" fill="white"/>
<path d="M157.77 371.673C177.491 371.673 193.479 355.686 193.479 335.965C193.479 316.243 177.491 300.256 157.77 300.256C138.048 300.256 122.062 316.243 122.062 335.965C122.062 355.686 138.048 371.673 157.77 371.673Z" fill="#1A1A1A"/>
<path d="M127.468 258.597C124.382 244.898 128.915 231.876 141.11 219.488C153.307 207.097 161.924 201.094 166.813 201.471C167.055 201.489 166.745 201.567 166.764 201.325C166.782 201.084 166.713 201.051 166.471 201.033C166.331 201.022 166.598 200.578 166.453 200.576C161.155 200.519 152.544 206.62 140.484 218.872C128.092 231.461 123.455 244.78 126.612 258.79C126.665 259.027 126.9 259.175 127.137 259.122C127.373 259.068 127.522 258.834 127.468 258.597Z" fill="#1A1A1A"/>
<path fill-rule="evenodd" clip-rule="evenodd" d="M134.651 363.771L147.823 330.09L180.857 320.515C182.098 320.155 183.397 320.87 183.757 322.112C183.974 322.86 183.805 323.666 183.306 324.264L164.506 346.795L162.96 371.674L134.651 363.771Z" fill="white"/>
<path fill-rule="evenodd" clip-rule="evenodd" d="M147.749 330.111C143.256 335.019 140.399 338.246 139.178 339.791C132.77 347.902 133.006 350.968 136.041 352.941C141.895 356.746 147.959 364.377 152.057 357.352C154.788 352.669 153.352 343.589 147.749 330.111Z" fill="#FD650B"/>
<path d="M147.497 329.794C147.714 329.556 148.104 329.625 148.227 329.921C153.88 343.52 155.333 352.709 152.508 357.553C150.896 360.315 148.845 361.146 146.33 360.346C144.513 359.767 143.138 358.828 139.485 355.956C138.611 355.269 138.099 354.873 137.549 354.463C136.942 354.012 136.395 353.627 135.874 353.288C132.194 350.896 132.866 347.142 138.906 339.498C140.135 337.942 142.996 334.71 147.497 329.794ZM151.749 357.11C154.346 352.66 153.013 343.901 147.679 330.896C143.461 335.51 140.764 338.562 139.595 340.042C133.832 347.337 133.259 350.541 136.352 352.552C136.89 352.901 137.452 353.297 138.073 353.759C138.631 354.174 139.148 354.574 140.028 355.266C143.581 358.06 144.924 358.977 146.596 359.509C148.713 360.183 150.342 359.523 151.749 357.11ZM165.525 345.666C165.663 345.467 165.937 345.418 166.136 345.556C166.335 345.694 166.384 345.968 166.246 346.167C164.545 348.616 162.98 349.868 161.495 349.868C161.253 349.868 161.056 349.671 161.056 349.429C161.056 349.186 161.253 348.99 161.495 348.99C162.611 348.99 163.974 347.9 165.525 345.666Z" fill="#1A1A1A"/>
<path d="M125.495 266.889C127.919 266.889 129.885 264.923 129.885 262.498C129.885 260.074 127.919 258.108 125.495 258.108C123.07 258.108 121.104 260.074 121.104 262.498C121.104 264.923 123.07 266.889 125.495 266.889Z" fill="white"/>
<path d="M125.285 267.328C127.952 267.328 130.114 265.165 130.114 262.498C130.114 259.831 127.952 257.669 125.285 257.669C122.617 257.669 120.456 259.831 120.456 262.498C120.456 265.165 122.617 267.328 125.285 267.328ZM125.285 266.45C123.103 266.45 121.334 264.681 121.334 262.498C121.334 260.316 123.103 258.547 125.285 258.547C127.467 258.547 129.236 260.316 129.236 262.498C129.236 264.681 127.467 266.45 125.285 266.45Z" fill="#1A1A1A"/>
<path d="M125.284 264.986C126.807 264.986 128.064 263.886 128.064 262.498C128.064 261.11 126.807 260.01 125.284 260.01C123.76 260.01 122.503 261.11 122.503 262.498C122.503 263.886 123.76 264.986 125.284 264.986ZM125.284 264.108C124.221 264.108 123.381 263.373 123.381 262.498C123.381 261.623 124.221 260.888 125.284 260.888C126.346 260.888 127.186 261.623 127.186 262.498C127.186 263.373 126.346 264.108 125.284 264.108Z" fill="#1A1A1A"/>
<path fill-rule="evenodd" clip-rule="evenodd" d="M162.958 369.624L161.285 386.015L136.406 400.65L116.712 410.894L107.053 398.016C115.129 397.548 119.714 396.28 120.81 394.211C124.051 388.088 128.636 378.038 134.566 364.063L162.958 369.624Z" fill="white"/>
<path d="M163.044 368.901C163.266 368.945 163.419 369.151 163.396 369.376L161.723 385.767C161.709 385.907 161.629 386.03 161.509 386.101L136.61 400.747L116.917 410.991C116.726 411.091 116.492 411.037 116.363 410.865L106.704 397.987C106.494 397.707 106.68 397.305 107.03 397.285C114.943 396.826 119.433 395.584 120.424 393.713C123.658 387.604 128.239 377.564 134.164 363.599C134.245 363.408 134.449 363.3 134.653 363.34L163.044 368.901ZM134.834 364.27C128.966 378.085 124.423 388.035 121.2 394.124C120.04 396.314 115.629 397.597 107.894 398.111L116.842 410.04L136.185 399.979L160.872 385.457L162.482 369.686L134.834 364.27ZM161.064 385.345L160.849 385.678L160.872 385.457L161.064 385.345Z" fill="#1A1A1A"/>
<path fill-rule="evenodd" clip-rule="evenodd" d="M56.1242 249.913C53.2142 249.913 50.8557 247.554 50.8557 244.644C50.8557 241.734 53.2142 239.376 56.1242 239.376C59.0342 239.376 61.3927 241.734 61.3927 244.644C61.3927 247.554 59.0342 249.913 56.1242 249.913ZM107.638 263.084L109.019 268.353C108.688 268.465 108.36 268.587 108.036 268.718C98.7804 272.464 94.3144 283.004 98.0603 292.259L100.823 299.086L95.5549 302.013L92.4383 291.866C89.0764 280.921 94.3414 269.179 104.75 264.408L107.638 263.084Z" fill="white"/>
<path d="M68.2649 269.295C68.2784 269.205 68.2631 269.113 68.2222 269.032L58.2706 249.421C58.1605 249.205 57.8965 249.119 57.6805 249.228C57.4639 249.338 57.3778 249.602 57.4873 249.819L67.3757 269.305L66.2254 277.069C66.1961 277.267 66.305 277.461 66.49 277.538L74.5174 280.898L87.6395 305.283C87.7549 305.496 88.0212 305.577 88.2343 305.462C88.448 305.347 88.5282 305.08 88.4128 304.867L75.217 280.345C75.1696 280.256 75.0929 280.187 74.9998 280.148L67.1439 276.86L68.2649 269.295Z" fill="#1A1A1A"/>
<path d="M55.9146 250.351C52.7623 250.351 50.2071 247.796 50.2071 244.644C50.2071 241.492 52.7623 238.936 55.9146 238.936C59.0664 238.936 61.6222 241.492 61.6222 244.644C61.6222 247.796 59.0664 250.351 55.9146 250.351ZM55.9146 249.473C58.5816 249.473 60.7441 247.311 60.7441 244.644C60.7441 241.977 58.5816 239.814 55.9146 239.814C53.247 239.814 51.0852 241.977 51.0852 244.644C51.0852 247.311 53.247 249.473 55.9146 249.473ZM107.246 262.684C107.494 262.571 107.784 262.708 107.853 262.972L109.234 268.241C109.292 268.464 109.169 268.694 108.95 268.768C108.627 268.877 108.307 268.996 107.991 269.124C98.9601 272.779 94.6024 283.064 98.2576 292.094L101.021 298.921C101.104 299.126 101.021 299.361 100.827 299.469L95.5584 302.396C95.3143 302.531 95.0075 302.408 94.9256 302.141L91.809 291.994C88.3821 280.839 93.7483 268.871 104.357 264.009L107.246 262.684ZM104.723 264.806C94.5146 269.485 89.3509 281.002 92.6484 291.736L95.6058 301.365L100.061 298.89L97.4439 292.423C93.6067 282.944 98.1809 272.148 107.661 268.311C107.867 268.227 108.073 268.148 108.282 268.072L107.136 263.701L104.723 264.806Z" fill="#1A1A1A"/>
<path d="M67.061 422.211C74.7284 432.663 79.6123 449.365 81.7344 472.32L80.8598 472.401C78.7202 449.255 73.7661 432.547 66.019 422.282C59.6868 413.891 52.8876 406.98 45.8863 401.409C40.7483 397.32 35.9405 394.288 31.7286 392.175L32.1226 391.39C36.3866 393.53 41.2459 396.594 46.4336 400.722C53.4208 406.282 60.2055 413.163 66.5295 421.501L96.0155 405.533C96.2286 405.417 96.495 405.497 96.6109 405.71C96.7262 405.923 96.6472 406.189 96.4335 406.305L67.061 422.211ZM108.947 413.91C108.831 413.698 108.909 413.431 109.122 413.314C109.335 413.198 109.601 413.277 109.718 413.489L135.831 461.321C135.947 461.533 135.869 461.8 135.656 461.916C135.443 462.033 135.176 461.954 135.06 461.742L108.947 413.91ZM99.3657 393.725C99.4728 393.942 99.3827 394.206 99.1649 394.312C98.9478 394.42 98.6843 394.33 98.5778 394.112L72.7077 341.427C72.6005 341.209 72.6907 340.947 72.9085 340.839C73.1256 340.732 73.3891 340.822 73.4956 341.04L99.3657 393.725Z" fill="#1A1A1A"/>
<path d="M121.69 309.622L134.652 335.965" stroke="#1A1A1A" stroke-width="0.877811" stroke-linecap="round" stroke-linejoin="round"/>
<path d="M161.433 385.869L184.619 431.473" stroke="#1A1A1A" stroke-width="0.877811" stroke-linecap="round" stroke-linejoin="round"/>
<path fill-rule="evenodd" clip-rule="evenodd" d="M163.35 329.807C160.506 327.769 158.179 327.259 156.37 328.278C153.656 329.807 150.166 332.865 152.105 336.686C154.044 340.508 155.594 343.565 157.533 343.565C159.472 343.565 162.961 343.947 164.9 339.743C166.193 336.941 165.676 333.628 163.35 329.807Z" fill="#FD650B"/>
<path fill-rule="evenodd" clip-rule="evenodd" d="M163.189 331.565C162.989 333.638 162.298 334.973 161.118 335.572C160.086 336.095 158.472 336.4 156.275 336.486C155.306 336.524 154.49 335.77 154.452 334.8C154.438 334.468 154.52 334.139 154.687 333.852C155.894 331.764 156.965 330.484 157.899 330.011C158.878 329.514 160.157 329.398 161.733 329.663C162.642 329.817 163.278 330.647 163.189 331.565Z" fill="white"/>
<path d="M162.462 332.259C162.166 332.723 161.582 333.038 160.908 333.038C159.938 333.038 159.152 332.383 159.152 331.575C159.152 330.786 159.902 330.142 160.839 330.112C159.632 329.982 158.649 330.116 157.887 330.503C157.05 330.927 156.025 332.153 154.857 334.172C154.732 334.388 154.671 334.635 154.681 334.884C154.709 335.61 155.321 336.176 156.049 336.148C158.188 336.064 159.746 335.77 160.71 335.281C161.617 334.821 162.207 333.826 162.462 332.259ZM161.636 330.242C161.782 330.289 161.916 330.361 162.034 330.451C161.914 330.368 161.78 330.297 161.636 330.242ZM163.417 331.708C163.203 333.916 162.443 335.387 161.107 336.064C160.008 336.621 158.337 336.937 156.083 337.025C154.871 337.073 153.851 336.13 153.804 334.918C153.787 334.503 153.889 334.092 154.097 333.732C155.344 331.577 156.461 330.242 157.49 329.72C158.563 329.175 159.934 329.051 161.596 329.331C162.733 329.523 163.527 330.56 163.417 331.708Z" fill="#1A1A1A"/>
<path fill-rule="evenodd" clip-rule="evenodd" d="M181.691 320.312C180.322 319.969 178.877 320.205 177.357 321.018V321.018C177.072 321.17 176.964 321.525 177.117 321.81C177.149 321.871 177.192 321.924 177.242 321.97C177.823 322.49 178.525 322.786 179.35 322.856C180.442 322.949 181.711 322.949 183.155 322.856C183.74 321.55 183.253 320.702 181.691 320.312Z" fill="#FD650B"/>
<path d="M182.089 319.823C180.607 319.453 179.052 319.706 177.44 320.568C176.941 320.835 176.753 321.456 177.02 321.955C177.077 322.06 177.151 322.155 177.24 322.234C177.893 322.819 178.685 323.152 179.603 323.231C180.719 323.326 182.009 323.326 183.474 323.231C183.636 323.221 183.78 323.121 183.846 322.973C184.55 321.403 183.902 320.276 182.089 319.823ZM179.678 322.356C178.947 322.294 178.334 322.036 177.826 321.581C177.813 321.569 177.802 321.556 177.795 321.541C177.756 321.469 177.783 321.381 177.855 321.342C179.283 320.578 180.618 320.361 181.876 320.675C183.08 320.976 183.453 321.482 183.142 322.372C181.832 322.447 180.677 322.442 179.678 322.356Z" fill="#1A1A1A"/>
<path d="M321.017 448.945C323.441 448.945 325.407 446.979 325.407 444.555C325.407 442.13 323.441 440.164 321.017 440.164C318.592 440.164 316.626 442.13 316.626 444.555C316.626 446.979 318.592 448.945 321.017 448.945Z" fill="white"/>
<path d="M320.807 449.384C323.474 449.384 325.636 447.222 325.636 444.555C325.636 441.887 323.474 439.725 320.807 439.725C318.139 439.725 315.977 441.887 315.977 444.555C315.977 447.222 318.139 449.384 320.807 449.384ZM320.807 448.506C318.625 448.506 316.856 446.737 316.856 444.555C316.856 442.372 318.625 440.603 320.807 440.603C322.989 440.603 324.758 442.372 324.758 444.555C324.758 446.737 322.989 448.506 320.807 448.506Z" fill="#1A1A1A"/>
<path d="M387.162 379.284C389.587 379.284 391.553 377.318 391.553 374.893C391.553 372.469 389.587 370.503 387.162 370.503C384.737 370.503 382.772 372.469 382.772 374.893C382.772 377.318 384.737 379.284 387.162 379.284Z" fill="white"/>
<path d="M387.164 379.723C389.831 379.723 391.993 377.56 391.993 374.893C391.993 372.226 389.831 370.064 387.164 370.064C384.497 370.064 382.334 372.226 382.334 374.893C382.334 377.56 384.497 379.723 387.164 379.723ZM387.164 378.845C384.981 378.845 383.212 377.075 383.212 374.893C383.212 372.711 384.981 370.942 387.164 370.942C389.346 370.942 391.115 372.711 391.115 374.893C391.115 377.075 389.346 378.845 387.164 378.845Z" fill="#1A1A1A"/>
<path d="M320.806 447.042C322.329 447.042 323.586 445.942 323.586 444.555C323.586 443.167 322.329 442.067 320.806 442.067C319.282 442.067 318.025 443.167 318.025 444.555C318.025 445.942 319.282 447.042 320.806 447.042ZM320.806 446.164C319.743 446.164 318.903 445.43 318.903 444.555C318.903 443.679 319.743 442.945 320.806 442.945C321.868 442.945 322.708 443.679 322.708 444.555C322.708 445.43 321.868 446.164 320.806 446.164Z" fill="#1A1A1A"/>
<path d="M387.162 377.381C388.686 377.381 389.943 376.281 389.943 374.893C389.943 373.505 388.686 372.405 387.162 372.405C385.638 372.405 384.382 373.505 384.382 374.893C384.382 376.281 385.638 377.381 387.162 377.381ZM387.162 376.503C386.099 376.503 385.26 375.768 385.26 374.893C385.26 374.018 386.099 373.283 387.162 373.283C388.225 373.283 389.065 374.018 389.065 374.893C389.065 375.768 388.225 376.503 387.162 376.503Z" fill="#1A1A1A"/>
<path d="M129.379 262.823C133.977 267.021 144.019 268.892 159.541 268.499C175.032 268.107 186.032 265.749 192.555 261.4C192.757 261.266 192.811 260.994 192.677 260.792C192.542 260.59 192.27 260.535 192.068 260.67C185.713 264.907 174.858 267.233 159.519 267.621C144.21 268.008 134.349 266.171 129.971 262.174C129.791 262.011 129.514 262.023 129.351 262.202C129.187 262.382 129.2 262.66 129.379 262.823Z" fill="#1A1A1A"/>
<path d="M305.267 262.127C293.164 269.747 284.827 277.005 280.255 283.915C275.689 290.82 271.575 302.474 267.9 318.892L268.757 319.085C272.411 302.762 276.493 291.195 280.988 284.4C285.479 277.611 293.727 270.429 305.735 262.87L305.267 262.127Z" fill="#1A1A1A"/>
<path fill-rule="evenodd" clip-rule="evenodd" d="M135.674 361.457C140.393 363.136 144.759 364.411 148.772 365.284C152.698 366.137 157.311 366.875 162.611 367.496C163.735 367.627 164.54 368.645 164.409 369.769C164.398 369.856 164.383 369.942 164.362 370.027L164.304 370.257C164.014 371.421 162.891 372.178 161.702 372.008C156.775 371.308 152.172 370.53 147.894 369.674C143.554 368.806 139.173 367.307 134.752 365.178C133.789 364.715 133.283 363.637 133.543 362.6C133.762 361.725 134.648 361.193 135.523 361.412C135.574 361.425 135.624 361.44 135.674 361.457Z" fill="white"/>
<path d="M153.02 366.931C151.52 366.667 150.099 366.388 148.757 366.096C147.122 365.741 145.418 365.282 143.646 364.72L143.014 367.461C144.785 367.99 146.527 368.426 148.238 368.768C149.596 369.04 150.988 369.304 152.413 369.56L153.02 366.931ZM153.886 367.081L153.278 369.714C156.061 370.203 158.968 370.663 161.998 371.094C162.741 371.2 163.443 370.727 163.624 369.999L163.682 369.769C163.694 369.721 163.703 369.672 163.709 369.622C163.784 368.979 163.324 368.398 162.681 368.323C159.506 367.95 156.574 367.537 153.886 367.081ZM142.808 364.448C140.525 363.691 138.131 362.767 135.626 361.676C135.571 361.652 135.514 361.632 135.456 361.618C134.877 361.474 134.29 361.826 134.145 362.405L134.054 362.775C133.88 363.469 134.234 364.187 134.891 364.471C137.372 365.549 139.799 366.459 142.172 367.203L142.808 364.448ZM135.977 360.871C140.709 362.932 145.031 364.388 148.944 365.238C152.87 366.092 157.483 366.829 162.784 367.45C163.908 367.582 164.712 368.6 164.58 369.725C164.57 369.811 164.555 369.897 164.534 369.982L164.476 370.212C164.186 371.376 163.063 372.132 161.875 371.963C156.947 371.262 152.344 370.485 148.065 369.629C143.742 368.764 139.234 367.313 134.541 365.277C133.491 364.821 132.924 363.673 133.201 362.562L133.294 362.192C133.555 361.143 134.618 360.504 135.669 360.766C135.774 360.792 135.877 360.827 135.977 360.871Z" fill="#1A1A1A"/>
<path fill-rule="evenodd" clip-rule="evenodd" d="M83.6355 313.427L87.7332 311.671L91.8309 320.159L87.7332 322.794L83.6355 313.427ZM97.3921 316.647C96.2992 316.647 95.1998 316.467 94.4652 315.769C93.679 315.023 93.2944 313.72 93.2944 312.549C93.2944 311.613 93.6439 310.313 94.1725 309.622C94.9212 308.645 96.0656 308.452 97.3921 308.452C98.5734 308.452 99.5715 308.53 100.319 309.33C101.004 310.062 101.49 311.468 101.49 312.549C101.49 313.9 101.035 315.315 100.026 316.062C99.3456 316.566 98.3042 316.647 97.3921 316.647Z" fill="#FD650B"/>
<path d="M83.3541 313.197L88.2445 311.102L92.6934 320.318L87.8359 323.441L83.3541 313.197ZM88.2275 322.145L91.5648 320L87.8183 312.24L84.5132 313.656L88.2275 322.145ZM97.6903 317.086C96.2889 317.086 95.2159 316.803 94.4613 316.087C93.6248 315.293 93.1535 313.922 93.1535 312.549C93.1535 311.473 93.5528 310.098 94.1224 309.355C94.8904 308.352 95.9775 308.012 97.6903 308.012C99.3212 308.012 100.183 308.222 100.938 309.029C101.689 309.832 102.227 311.335 102.227 312.549C102.227 314.15 101.653 315.624 100.586 316.414C99.9031 316.919 98.9869 317.086 97.6903 317.086ZM97.6903 316.208C98.8102 316.208 99.577 316.068 100.063 315.708C100.878 315.105 101.349 313.896 101.349 312.549C101.349 311.549 100.888 310.261 100.296 309.629C99.7556 309.051 99.0976 308.89 97.6903 308.89C96.2239 308.89 95.3833 309.153 94.819 309.889C94.3764 310.467 94.0316 311.654 94.0316 312.549C94.0316 313.7 94.4238 314.841 95.0654 315.45C95.6227 315.979 96.4926 316.208 97.6903 316.208Z" fill="#1A1A1A"/>
<path d="M313.11 190.203H262.181C261.211 190.203 260.425 190.989 260.425 191.959C260.425 192.929 261.211 193.715 262.181 193.715H313.11C314.08 193.715 314.866 192.929 314.866 191.959C314.866 190.989 314.08 190.203 313.11 190.203Z" fill="white"/>
<path d="M262.181 190.203H313.11C314.08 190.203 314.866 190.989 314.866 191.959C314.866 192.929 314.08 193.715 313.11 193.715H262.181C261.211 193.715 260.425 192.929 260.425 191.959C260.425 190.989 261.211 190.203 262.181 190.203ZM262.181 191.081C261.696 191.081 261.303 191.474 261.303 191.959C261.303 192.444 261.696 192.837 262.181 192.837H313.11C313.595 192.837 313.988 192.444 313.988 191.959C313.988 191.474 313.595 191.081 313.11 191.081H262.181Z" fill="#1A1A1A"/>
<path d="M185.642 430.644L162.521 385.266C162.191 384.617 161.398 384.36 160.75 384.69C160.102 385.02 159.844 385.813 160.174 386.462L183.296 431.84C183.626 432.488 184.419 432.746 185.067 432.415C185.715 432.085 185.973 431.292 185.642 430.644Z" fill="white" stroke="#1A1A1A" stroke-width="0.877811"/>
<path fill-rule="evenodd" clip-rule="evenodd" d="M171.515 313.9C169.847 315.314 162.031 309.312 160.359 308.605C159.46 308.225 159.04 307.188 159.42 306.29C159.769 305.466 160.678 305.033 161.537 305.28C166.672 306.763 169.567 307.838 170.222 308.506C171.881 310.198 173.183 312.486 171.515 313.9Z" fill="white"/>
<path fill-rule="evenodd" clip-rule="evenodd" d="M210.857 353.805L228.341 342.73C228.614 342.556 228.976 342.638 229.149 342.911C229.153 342.918 229.157 342.925 229.161 342.931L235.852 354.507C236.007 354.777 235.924 355.122 235.662 355.292L218.489 366.371C218.218 366.546 217.855 366.468 217.68 366.196C217.678 366.191 217.674 366.186 217.671 366.182L210.67 354.602C210.505 354.329 210.588 353.975 210.857 353.805Z" fill="white"/>
<path d="M210.04 353.983L228.408 342.505C228.682 342.334 229.043 342.417 229.215 342.691L236.66 354.606C236.831 354.88 236.748 355.241 236.474 355.412L218.105 366.89C217.831 367.062 217.47 366.978 217.299 366.704L209.854 354.79C209.682 354.515 209.766 354.154 210.04 353.983ZM210.753 354.572L217.888 365.99L235.76 354.823L228.625 343.405L210.753 354.572Z" fill="#1A1A1A"/>
<path d="M214.463 354.162L226.378 346.717C226.652 346.545 227.013 346.629 227.184 346.903L232.148 354.846C232.319 355.12 232.236 355.481 231.962 355.653L220.047 363.098C219.773 363.269 219.411 363.185 219.241 362.912L214.277 354.968C214.105 354.694 214.189 354.333 214.463 354.162ZM219.83 362.198L231.248 355.063L226.595 347.616L215.177 354.751L219.83 362.198Z" fill="#1A1A1A"/>
<path d="M455.467 146.376V139.217C455.467 138.914 455.714 138.666 456.017 138.666C456.32 138.666 456.568 138.914 456.568 139.217V146.376H463.727C464.03 146.376 464.278 146.624 464.278 146.927C464.278 147.23 464.03 147.477 463.727 147.477H456.568V154.636C456.568 154.939 456.32 155.187 456.017 155.187C455.714 155.187 455.467 154.939 455.467 154.636V147.477H448.308C448.005 147.477 447.757 147.23 447.757 146.927C447.757 146.624 448.005 146.376 448.308 146.376H455.467Z" fill="#1A1A1A"/>
<path d="M7.7097 139.514V132.355C7.7097 132.053 7.95751 131.805 8.26039 131.805C8.56327 131.805 8.81108 132.053 8.81108 132.355V139.514H15.9701C16.273 139.514 16.5208 139.762 16.5208 140.065C16.5208 140.368 16.273 140.616 15.9701 140.616H8.81108V147.775C8.81108 148.078 8.56327 148.326 8.26039 148.326C7.95751 148.326 7.7097 148.078 7.7097 147.775V140.616H0.550693C0.247812 140.616 0 140.368 0 140.065C0 139.762 0.247812 139.514 0.550693 139.514H7.7097Z" fill="#1A1A1A"/>
<path d="M449.465 418.29V411.131C449.465 410.828 449.712 410.58 450.015 410.58C450.318 410.58 450.566 410.828 450.566 411.131V418.29H457.725C458.028 418.29 458.276 418.538 458.276 418.841C458.276 419.143 458.028 419.391 457.725 419.391H450.566V426.55C450.566 426.853 450.318 427.101 450.015 427.101C449.712 427.101 449.465 426.853 449.465 426.55V419.391H442.306C442.003 419.391 441.755 419.143 441.755 418.841C441.755 418.538 442.003 418.29 442.306 418.29H449.465Z" fill="#1A1A1A"/>
<path d="M22.3557 270.816V265.309C22.3557 265.006 22.6035 264.758 22.9064 264.758C23.2092 264.758 23.4571 265.006 23.4571 265.309V270.816H28.964C29.2669 270.816 29.5147 271.064 29.5147 271.367C29.5147 271.67 29.2669 271.917 28.964 271.917H23.4571V277.424C23.4571 277.727 23.2092 277.975 22.9064 277.975C22.6035 277.975 22.3557 277.727 22.3557 277.424V271.917H16.8487C16.5459 271.917 16.2981 271.67 16.2981 271.367C16.2981 271.064 16.5459 270.816 16.8487 270.816H22.3557Z" fill="#1A1A1A"/>
<path d="M359.185 264.536V259.305C359.185 259.002 359.433 258.754 359.736 258.754C360.039 258.754 360.287 259.002 360.287 259.305V264.536H365.518C365.821 264.536 366.069 264.784 366.069 265.087C366.069 265.39 365.821 265.638 365.518 265.638H360.287V270.869C360.287 271.172 360.039 271.42 359.736 271.42C359.433 271.42 359.185 271.172 359.185 270.869V265.638H353.954C353.651 265.638 353.403 265.39 353.403 265.087C353.403 264.784 353.651 264.536 353.954 264.536H359.185Z" fill="#1A1A1A"/>
<path d="M251.965 100.702V95.4704C251.965 95.1676 252.212 94.9197 252.515 94.9197C252.818 94.9197 253.066 95.1676 253.066 95.4704V100.702H258.297C258.6 100.702 258.848 100.95 258.848 101.253C258.848 101.556 258.6 101.803 258.297 101.803H253.066V107.035C253.066 107.338 252.818 107.586 252.515 107.586C252.212 107.586 251.965 107.338 251.965 107.035V101.803H246.733C246.43 101.803 246.182 101.556 246.182 101.253C246.182 100.95 246.43 100.702 246.733 100.702H251.965Z" fill="#1A1A1A"/>
<path d="M368.419 155.471C368.419 155.243 368.601 155.059 368.83 155.059C369.058 155.059 369.242 155.242 369.242 155.47L369.418 191.88C369.46 200.776 376.709 207.952 385.605 207.909C387.682 207.901 389.732 207.491 391.648 206.701L399.408 203.516C406.93 200.425 415.529 204.02 418.621 211.537C420.007 214.914 420.09 218.685 418.854 222.12L412.849 238.795C409.8 247.259 410.968 256.672 415.996 264.13L423.36 275.063C423.49 275.253 423.437 275.507 423.247 275.637C423.058 275.762 422.803 275.714 422.673 275.524L415.302 264.596C410.124 256.913 408.923 247.228 412.064 238.515L418.069 221.84C419.239 218.599 419.161 215.04 417.849 211.849C414.932 204.752 406.815 201.359 399.717 204.276L391.957 207.46C389.941 208.286 387.782 208.717 385.601 208.731C376.248 208.773 368.631 201.233 368.589 191.88L368.419 155.471Z" fill="#1A1A1A"/>
<path d="M96.5491 166.707V153.656H103.885V150.073H96.5491V130.88H92.9664V150.073H67.1195L88.2747 105.289H84.3507L63.1955 150.073V153.656H92.9664V166.707H96.5491Z" fill="#6E6E6E"/>
<path d="M141.393 167.987C151.63 167.987 160.075 159.542 160.075 149.306V122.691C160.075 112.455 151.63 104.009 141.393 104.009C131.157 104.009 122.712 112.455 122.712 122.691V149.306C122.712 159.542 131.157 167.987 141.393 167.987ZM141.393 164.404C133.119 164.404 126.295 157.58 126.295 149.306V122.691C126.295 114.417 133.119 107.592 141.393 107.592C149.668 107.592 156.492 114.417 156.492 122.691V149.306C156.492 157.58 149.668 164.404 141.393 164.404Z" fill="#6E6E6E"/>
<path d="M212.253 166.707V153.656H219.589V150.073H212.253V130.88H208.671V150.073H182.824L203.979 105.289H200.055L178.9 150.073V153.656H208.671V166.707H212.253Z" fill="#6E6E6E"/>
</svg>
