<svg width="369" height="143" viewBox="0 0 369 143" fill="none" xmlns="http://www.w3.org/2000/svg">
<path fill-rule="evenodd" clip-rule="evenodd" d="M16.8864 142.972C16.8864 142.972 33.7729 131.151 33.7729 115.954C33.7729 111.475 31.9938 107.18 28.827 104.013C25.6601 100.846 21.365 99.0671 16.8864 99.0671C12.4079 99.0671 8.11275 100.846 4.94592 104.013C1.7791 107.18 0 111.475 0 115.954C0 131.151 16.8864 142.972 16.8864 142.972ZM23.641 115.954C23.641 119.684 20.6169 122.708 16.8864 122.708C13.156 122.708 10.1319 119.684 10.1319 115.954C10.1319 112.223 13.156 109.199 16.8864 109.199C20.6169 109.199 23.641 112.223 23.641 115.954Z" fill="#FF9E65"/>
<path fill-rule="evenodd" clip-rule="evenodd" d="M352.114 43.9047C352.114 43.9047 369 32.0842 369 16.8864C369 12.4079 367.221 8.11275 364.054 4.94592C360.887 1.7791 356.592 0 352.114 0C347.635 0 343.34 1.7791 340.173 4.94592C337.006 8.11275 335.227 12.4079 335.227 16.8864C335.227 32.0842 352.114 43.9047 352.114 43.9047ZM358.868 16.8864C358.868 20.6169 355.844 23.641 352.114 23.641C348.383 23.641 345.359 20.6169 345.359 16.8864C345.359 13.156 348.383 10.1319 352.114 10.1319C355.844 10.1319 358.868 13.156 358.868 16.8864Z" fill="#FF9E65"/>
</svg>
